HIERARCHY
ROOT WRIST
{
	OFFSET 0.000000 0.000000 0.000000
	CHANNELS 6 Xposition Yposition Zposition Yrotation Xrotation Zrotation
	JOINT THUMB_CMC_FE
	{
		OFFSET -0.225143 0.117753 -0.062308
		CHANNELS 3 Yrotation Xrotation Zrotation
		JOINT THUMB_CMC_AA
		{
			OFFSET -0.212856 -0.150507 0.098851
			CHANNELS 3 Yrotation Xrotation Zrotation
			JOINT THUMB_MCP_FE
			{
				OFFSET 0.322503 -0.167445 -0.031436
				CHANNELS 3 Yrotation Xrotation Zrotation
				JOINT THUMB_IP_FE
				{
					OFFSET -0.295233 -0.236404 0.025845
					CHANNELS 3 Yrotation Xrotation Zrotation
					End Site
					{
						OFFSET 0.000000 0.000000 0.000000
					}
				}
			}
		}
	}
	JOINT INDEX_MCP
	{
		OFFSET -1.076913 0.264198 -0.014768
		CHANNELS 3 Yrotation Xrotation Zrotation
		JOINT INDEX_PIP_FE
		{
			OFFSET -0.425053 0.013289 0.013619
			CHANNELS 3 Yrotation Xrotation Zrotation
			JOINT INDEX_DIP_FE
			{
				OFFSET -0.271505 -0.024898 0.000550
				CHANNELS 3 Yrotation Xrotation Zrotation
				End Site
				{
					OFFSET 0.000000 0.000000 0.000000
				}
			}
		}
	}
	JOINT MIDDLE_MCP
	{
		OFFSET -1.072991 0.019362 0.038780
		CHANNELS 3 Yrotation Xrotation Zrotation
		JOINT MIDDLE_PIP_FE
		{
			OFFSET -0.480704 0.002618 0.028696
			CHANNELS 3 Yrotation Xrotation Zrotation
			JOINT MIDDLE_DIP_FE
			{
				OFFSET -0.307486 -0.031129 -0.000643
				CHANNELS 3 Yrotation Xrotation Zrotation
				End Site
				{
					OFFSET 0.000000 0.000000 0.000000
				}
			}
		}
	}
	JOINT RING_MCP
	{
		OFFSET -0.994992 -0.195930 -0.005938
		CHANNELS 3 Yrotation Xrotation Zrotation
		JOINT RING_PIP_FE
		{
			OFFSET -0.436995 0.003792 0.019994
			CHANNELS 3 Yrotation Xrotation Zrotation
			JOINT RING_DIP_FE
			{
				OFFSET -0.295558 -0.038341 -0.006642
				CHANNELS 3 Yrotation Xrotation Zrotation
				End Site
				{
					OFFSET 0.000000 0.000000 0.000000
				}
			}
		}
	}
	JOINT PINKY_MCP
	{
		OFFSET -0.873858 -0.393246 -0.086282
		CHANNELS 3 Yrotation Xrotation Zrotation
		JOINT PINKY_PIP_FE
		{
			OFFSET -0.343972 -0.016492 0.013445
			CHANNELS 3 Yrotation Xrotation Zrotation
			JOINT PINKY_DIP_FE
			{
				OFFSET -0.224713 -0.036309 -0.010265
				CHANNELS 3 Yrotation Xrotation Zrotation
				End Site
				{
					OFFSET 0.000000 0.000000 0.000000
				}
			}
		}
	}
}
MOTION
Frames: 10
Frame Time: 0.008333334
-0.147089 -0.030857 4.758247 36.102810 -70.668670 -28.719970 -61.461180 4.834460 -70.974060 -119.352900 -30.976930 -5.482239 112.863900 -65.843260 41.276280 -4.562103 -8.459839 18.867530 156.578300 3.079544 167.519700 41.978260 -86.125550 -32.340550 2.052633 1.704992 24.364860 163.598100 -2.331024 164.551000 39.241210 -88.411320 -20.870760 6.002522 4.395438 -1.644958 175.895900 -6.548889 164.342100 31.479860 -85.617800 0.797103 -0.199310 0.562947 -4.968536 -174.710200 -11.491120 160.617900 48.977530 -83.530580 -4.855988 -5.539795 0.809158 10.934960 
-0.146878 -0.031429 4.758026 36.260650 -70.655030 -28.861210 -61.461180 4.834446 -70.942750 -119.352900 -30.976900 -5.466461 112.863900 -65.843260 41.210450 -4.562103 -8.459839 18.943480 156.476900 3.076762 167.554800 41.978400 -86.125700 -32.395170 2.052622 1.705006 24.340550 163.436300 -2.345673 164.592900 39.240880 -88.411190 -21.054870 6.002527 4.395452 -1.805603 175.656200 -6.605927 164.338400 31.479750 -85.617800 0.036895 -0.199310 0.562925 -4.968506 -174.830600 -11.532410 160.645600 48.977680 -83.530610 -4.997986 -5.539795 0.809187 10.927290 
-0.147046 -0.031061 4.758252 36.197140 -70.656980 -28.803340 -61.461180 4.834465 -70.928890 -119.352900 -30.976930 -5.470337 112.863900 -65.843290 41.214240 -4.562103 -8.459839 18.895550 156.470000 3.076575 167.561600 41.978310 -86.125550 -32.447810 2.052627 1.704994 24.375180 163.548700 -2.335510 164.582600 39.241460 -88.411320 -20.861540 6.002519 4.395442 -1.803436 175.766100 -6.579803 164.373800 31.479960 -85.617860 0.633264 -0.199310 0.562920 -4.968536 -174.851900 -11.539700 160.643600 48.977670 -83.530610 -5.046021 -5.539795 0.809168 11.207010 
-0.147004 -0.031239 4.758285 36.148540 -70.623080 -28.757080 -61.461180 4.834455 -70.914670 -119.352900 -30.976930 -5.463898 112.863900 -65.843260 41.181460 -4.562103 -8.459839 18.930250 156.541800 3.078534 167.551000 41.978420 -86.125610 -32.381350 2.052622 1.705001 24.494720 163.576800 -2.332977 164.562600 39.241340 -88.411320 -20.748080 6.002529 4.395436 -1.598663 175.828700 -6.564911 164.364800 31.479680 -85.617830 0.724624 -0.199310 0.562932 -4.968536 -174.775000 -11.513340 160.640700 48.977620 -83.530580 -4.918396 -5.539795 0.809184 11.139370 
-0.146946 -0.030618 4.758111 36.014040 -70.599950 -28.608760 -61.461180 4.834458 -70.848450 -119.352900 -30.976930 -5.435944 112.864000 -65.843260 41.126390 -4.562103 -8.459839 18.890170 156.493400 3.077199 167.522500 41.978520 -86.125670 -32.419920 2.052629 1.705013 24.347950 163.613600 -2.329620 164.579300 39.241470 -88.411190 -20.807650 6.002522 4.395453 -1.621765 175.867800 -6.555573 164.377300 31.479830 -85.617830 0.725496 -0.199310 0.562929 -4.968506 -174.694300 -11.485690 160.622700 48.977700 -83.530580 -4.616608 -5.539795 0.809185 10.939320 
-0.146776 -0.031114 4.758698 35.983380 -70.550200 -28.629790 -61.461210 4.834455 -70.853880 -119.352900 -30.976900 -5.453674 112.863900 -65.843260 41.209010 -4.562073 -8.459808 18.943310 156.508400 3.077625 167.497800 41.978310 -86.125550 -32.297790 2.052621 1.704989 24.249410 163.495400 -2.340332 164.507900 39.241100 -88.411320 -21.065090 6.002527 4.395447 -1.822998 175.954300 -6.534943 164.279700 31.479520 -85.617740 0.909179 -0.199310 0.562916 -4.968536 -174.576500 -11.445220 160.492400 48.977680 -83.530580 -4.506989 -5.539795 0.809162 11.409140 
-0.146794 -0.030901 4.758552 35.935900 -70.559660 -28.560730 -61.461180 4.834444 -70.867740 -119.352900 -30.976930 -5.434967 112.863900 -65.843260 41.201760 -4.562103 -8.459839 18.878960 156.549000 3.078733 167.506000 41.978520 -86.125550 -32.318020 2.052626 1.705003 24.175140 163.542700 -2.336029 164.554300 39.241090 -88.411440 -20.938480 6.002524 4.395454 -1.709717 176.003900 -6.523132 164.320200 31.479860 -85.617800 0.962025 -0.199310 0.562925 -4.968536 -174.655700 -11.472380 160.559600 48.977570 -83.530580 -4.608002 -5.539795 0.809175 11.242630 
-0.146702 -0.030532 4.758748 35.942000 -70.612950 -28.557770 -61.461180 4.834449 -70.919460 -119.352900 -30.976900 -5.436707 112.863900 -65.843260 41.234520 -4.562073 -8.459839 18.781350 156.575500 3.079463 167.547800 41.978260 -86.125520 -32.324710 2.052634 1.705009 24.245890 163.671900 -2.324341 164.582400 39.241380 -88.411190 -20.758150 6.002530 4.395450 -1.687500 175.832900 -6.563873 164.365400 31.479630 -85.617680 0.226219 -0.199310 0.562924 -4.968536 -174.687400 -11.483310 160.630100 48.977710 -83.530550 -4.645325 -5.539795 0.809172 11.238210 
-0.146979 -0.031359 4.758266 36.087760 -70.513520 -28.694520 -61.461180 4.834453 -70.825380 -119.352900 -30.976900 -5.499908 112.863900 -65.843260 41.174920 -4.562103 -8.459839 18.731530 156.431300 3.075514 167.523600 41.978220 -86.125550 -32.290830 2.052621 1.704999 24.292250 163.361700 -2.352448 164.552600 39.241240 -88.411320 -21.197600 6.002520 4.395455 -1.842102 175.688100 -6.598358 164.268100 31.479770 -85.617740 -0.008484 -0.199310 0.562938 -4.968536 -174.692700 -11.485080 160.583900 48.977560 -83.530610 -4.839355 -5.539795 0.809171 11.271610 
-0.146849 -0.030812 4.758696 35.989880 -70.563350 -28.597350 -61.461180 4.834460 -70.915800 -119.352900 -30.976930 -5.473419 112.863900 -65.843260 41.238470 -4.562073 -8.459839 18.863440 156.541600 3.078547 167.558200 41.978130 -86.125550 -32.343600 2.052625 1.704990 24.420270 163.459300 -2.343597 164.590000 39.241150 -88.411320 -21.091430 6.002520 4.395446 -1.977234 175.772500 -6.578247 164.343200 31.479620 -85.617860 0.210509 -0.199310 0.562927 -4.968506 -174.745400 -11.503200 160.666200 48.977590 -83.530550 -4.968933 -5.539795 0.809194 11.148430 
